<svg height="1000" width="1000" style="" transform="" >
<g style="" transform=""><polyline points="500,0.0 0,0 1000,1000 " style="fill:none;stroke:black;stroke_width:1;" transform="" /><polyline points="500,25.0 0,50 1000,950 " style="fill:none;stroke:black;stroke_width:1;" transform="" /><polyline points="500,50.0 0,100 1000,900 " style="fill:none;stroke:black;stroke_width:1;" transform="" /><polyline points="500,75.0 0,150 1000,850 " style="fill:none;stroke:black;stroke_width:1;" transform="" /><polyline points="500,100.0 0,200 1000,800 " style="fill:none;stroke:black;stroke_width:1;" transform="" /><polyline points="500,125.0 0,250 1000,750 " style="fill:none;stroke:black;stroke_width:1;" transform="" /><polyline points="500,150.0 0,300 1000,700 " style="fill:none;stroke:black;stroke_width:1;" transform="" /><polyline points="500,175.0 0,350 1000,650 " style="fill:none;stroke:black;stroke_width:1;" transform="" /><polyline points="500,200.0 0,400 1000,600 " style="fill:none;stroke:black;stroke_width:1;" transform="" /><polyline points="500,225.0 0,450 1000,550 " style="fill:none;stroke:black;stroke_width:1;" transform="" /><polyline points="500,250.0 1000,500 0,500 " style="fill:none;stroke:black;stroke_width:1;" transform="" /><polyline points="500,275.0 1000,450 0,550 " style="fill:none;stroke:black;stroke_width:1;" transform="" /><polyline points="500,300.0 1000,400 0,600 " style="fill:none;stroke:black;stroke_width:1;" transform="" /><polyline points="500,325.0 1000,350 0,650 " style="fill:none;stroke:black;stroke_width:1;" transform="" /><polyline points="1000,300 500,350.0 0,700 " style="fill:none;stroke:black;stroke_width:1;" transform="" /><polyline points="1000,250 500,375.0 0,750 " style="fill:none;stroke:black;stroke_width:1;" transform="" /><polyline points="1000,200 500,400.0 0,800 " style="fill:none;stroke:black;stroke_width:1;" transform="" /><polyline points="1000,150 500,425.0 0,850 " style="fill:none;stroke:black;stroke_width:1;" transform="" /><polyline points="1000,100 500,450.0 0,900 " style="fill:none;stroke:black;stroke_width:1;" transform="" /><polyline points="1000,50 500,475.0 0,950 " style="fill:none;stroke:black;stroke_width:1;" transform="" /></g>
<g style="" transform="rotate(180, 500, 500)"><polyline points="0,0 500,0.0 1000,1000 " style="fill:none;stroke:black;stroke_width:1;" transform="" /><polyline points="0,50 500,25.0 1000,950 " style="fill:none;stroke:black;stroke_width:1;" transform="" /><polyline points="0,100 500,50.0 1000,900 " style="fill:none;stroke:black;stroke_width:1;" transform="" /><polyline points="0,150 500,75.0 1000,850 " style="fill:none;stroke:black;stroke_width:1;" transform="" /><polyline points="0,200 500,100.0 1000,800 " style="fill:none;stroke:black;stroke_width:1;" transform="" /><polyline points="0,250 500,125.0 1000,750 " style="fill:none;stroke:black;stroke_width:1;" transform="" /><polyline points="0,300 500,150.0 1000,700 " style="fill:none;stroke:black;stroke_width:1;" transform="" /><polyline points="0,350 500,175.0 1000,650 " style="fill:none;stroke:black;stroke_width:1;" transform="" /><polyline points="0,400 500,200.0 1000,600 " style="fill:none;stroke:black;stroke_width:1;" transform="" /><polyline points="0,450 500,225.0 1000,550 " style="fill:none;stroke:black;stroke_width:1;" transform="" /><polyline points="0,500 500,250.0 1000,500 " style="fill:none;stroke:black;stroke_width:1;" transform="" /><polyline points="0,550 500,275.0 1000,450 " style="fill:none;stroke:black;stroke_width:1;" transform="" /><polyline points="0,600 500,300.0 1000,400 " style="fill:none;stroke:black;stroke_width:1;" transform="" /><polyline points="0,650 500,325.0 1000,350 " style="fill:none;stroke:black;stroke_width:1;" transform="" /><polyline points="0,700 500,350.0 1000,300 " style="fill:none;stroke:black;stroke_width:1;" transform="" /><polyline points="0,750 500,375.0 1000,250 " style="fill:none;stroke:black;stroke_width:1;" transform="" /><polyline points="0,800 500,400.0 1000,200 " style="fill:none;stroke:black;stroke_width:1;" transform="" /><polyline points="0,850 500,425.0 1000,150 " style="fill:none;stroke:black;stroke_width:1;" transform="" /><polyline points="0,900 500,450.0 1000,100 " style="fill:none;stroke:black;stroke_width:1;" transform="" /><polyline points="0,950 500,475.0 1000,50 " style="fill:none;stroke:black;stroke_width:1;" transform="" /></g>
<g style="" transform="rotate(90, 500, 500)"><polyline points="500,0.0 0,0 1000,1000 " style="fill:none;stroke:black;stroke_width:1;" transform="" /><polyline points="500,25.0 0,50 1000,950 " style="fill:none;stroke:black;stroke_width:1;" transform="" /><polyline points="500,50.0 0,100 1000,900 " style="fill:none;stroke:black;stroke_width:1;" transform="" /><polyline points="500,75.0 0,150 1000,850 " style="fill:none;stroke:black;stroke_width:1;" transform="" /><polyline points="500,100.0 0,200 1000,800 " style="fill:none;stroke:black;stroke_width:1;" transform="" /><polyline points="500,125.0 0,250 1000,750 " style="fill:none;stroke:black;stroke_width:1;" transform="" /><polyline points="500,150.0 0,300 1000,700 " style="fill:none;stroke:black;stroke_width:1;" transform="" /><polyline points="500,175.0 0,350 1000,650 " style="fill:none;stroke:black;stroke_width:1;" transform="" /><polyline points="500,200.0 0,400 1000,600 " style="fill:none;stroke:black;stroke_width:1;" transform="" /><polyline points="500,225.0 0,450 1000,550 " style="fill:none;stroke:black;stroke_width:1;" transform="" /><polyline points="500,250.0 1000,500 0,500 " style="fill:none;stroke:black;stroke_width:1;" transform="" /><polyline points="500,275.0 1000,450 0,550 " style="fill:none;stroke:black;stroke_width:1;" transform="" /><polyline points="500,300.0 1000,400 0,600 " style="fill:none;stroke:black;stroke_width:1;" transform="" /><polyline points="500,325.0 1000,350 0,650 " style="fill:none;stroke:black;stroke_width:1;" transform="" /><polyline points="1000,300 500,350.0 0,700 " style="fill:none;stroke:black;stroke_width:1;" transform="" /><polyline points="1000,250 500,375.0 0,750 " style="fill:none;stroke:black;stroke_width:1;" transform="" /><polyline points="1000,200 500,400.0 0,800 " style="fill:none;stroke:black;stroke_width:1;" transform="" /><polyline points="1000,150 500,425.0 0,850 " style="fill:none;stroke:black;stroke_width:1;" transform="" /><polyline points="1000,100 500,450.0 0,900 " style="fill:none;stroke:black;stroke_width:1;" transform="" /><polyline points="1000,50 500,475.0 0,950 " style="fill:none;stroke:black;stroke_width:1;" transform="" /></g>
<g style="" transform="rotate(270, 500, 500)"><polyline points="0,0 500,0.0 1000,1000 " style="fill:none;stroke:black;stroke_width:1;" transform="" /><polyline points="0,50 500,25.0 1000,950 " style="fill:none;stroke:black;stroke_width:1;" transform="" /><polyline points="0,100 500,50.0 1000,900 " style="fill:none;stroke:black;stroke_width:1;" transform="" /><polyline points="0,150 500,75.0 1000,850 " style="fill:none;stroke:black;stroke_width:1;" transform="" /><polyline points="0,200 500,100.0 1000,800 " style="fill:none;stroke:black;stroke_width:1;" transform="" /><polyline points="0,250 500,125.0 1000,750 " style="fill:none;stroke:black;stroke_width:1;" transform="" /><polyline points="0,300 500,150.0 1000,700 " style="fill:none;stroke:black;stroke_width:1;" transform="" /><polyline points="0,350 500,175.0 1000,650 " style="fill:none;stroke:black;stroke_width:1;" transform="" /><polyline points="0,400 500,200.0 1000,600 " style="fill:none;stroke:black;stroke_width:1;" transform="" /><polyline points="0,450 500,225.0 1000,550 " style="fill:none;stroke:black;stroke_width:1;" transform="" /><polyline points="0,500 500,250.0 1000,500 " style="fill:none;stroke:black;stroke_width:1;" transform="" /><polyline points="0,550 500,275.0 1000,450 " style="fill:none;stroke:black;stroke_width:1;" transform="" /><polyline points="0,600 500,300.0 1000,400 " style="fill:none;stroke:black;stroke_width:1;" transform="" /><polyline points="0,650 500,325.0 1000,350 " style="fill:none;stroke:black;stroke_width:1;" transform="" /><polyline points="0,700 500,350.0 1000,300 " style="fill:none;stroke:black;stroke_width:1;" transform="" /><polyline points="0,750 500,375.0 1000,250 " style="fill:none;stroke:black;stroke_width:1;" transform="" /><polyline points="0,800 500,400.0 1000,200 " style="fill:none;stroke:black;stroke_width:1;" transform="" /><polyline points="0,850 500,425.0 1000,150 " style="fill:none;stroke:black;stroke_width:1;" transform="" /><polyline points="0,900 500,450.0 1000,100 " style="fill:none;stroke:black;stroke_width:1;" transform="" /><polyline points="0,950 500,475.0 1000,50 " style="fill:none;stroke:black;stroke_width:1;" transform="" /></g>
<rect x="0" y="0" width="1000" height="1000" rx="0" ry="0" style="fill:none;stroke:black;stroke_width:5;" transform="" />
</svg>
